<svg width="55" height="45" viewBox="0 0 55 45" fill="none" xmlns="http://www.w3.org/2000/svg">
<path fill-rule="evenodd" clip-rule="evenodd" d="M3.78096 19.3722C18.5449 13.0217 28.3898 8.835 33.3157 6.81222C47.3803 1.03674 50.3028 0.0334815 52.2076 0.000353222C52.6265 -0.00693298 53.5633 0.095574 54.1701 0.58167C54.6824 0.992121 54.8234 1.54658 54.8909 1.93573C54.9583 2.32488 55.0423 3.21138 54.9755 3.90407C54.2134 11.8103 50.9155 30.9965 49.2378 39.8515C48.5278 43.5984 47.13 44.8548 45.7767 44.9777C42.8356 45.2449 40.6024 43.0588 37.7538 41.2153C33.2965 38.3306 30.7783 36.5349 26.4517 33.72C21.4515 30.4669 24.6929 28.6789 27.5425 25.7569C28.2882 24.9921 41.2465 13.3556 41.4973 12.3C41.5286 12.168 41.5577 11.6759 41.2616 11.416C40.9655 11.1562 40.5284 11.245 40.213 11.3157C39.766 11.4159 32.6453 16.0625 18.8509 25.2556C16.8297 26.6259 14.9989 27.2935 13.3587 27.2585C11.5504 27.2199 8.07201 26.2491 5.48618 25.4192C2.31456 24.4014 -0.206176 23.8633 0.0133243 22.1346C0.127653 21.2343 1.38353 20.3135 3.78096 19.3722Z" fill="#C9DBE9"/>
</svg>
